<svg width="48" height="37" viewBox="0 0 48 37" fill="none" xmlns="http://www.w3.org/2000/svg">
<path d="M47.6103 0.035293C47.4495 0.021276 47.2877 0.021276 47.1268 0.035293H34.7811H27.326C20.3193 0.289192 15.0527 2.02417 11.5261 5.24022C11.3579 5.38833 11.1967 5.53641 11.0426 5.69863C9.01487 7.74632 7.58486 10.3153 6.90861 13.1252L0.756836 36.6108H21.0761C28.0501 36.3569 33.3004 34.636 36.8271 31.4482C36.9952 31.3001 37.1563 31.1449 37.3175 30.9898C39.3771 28.9387 40.8322 26.3535 41.5215 23.5209L47.6733 0.035293H47.6103ZM29.3509 20.3683C28.9389 21.9756 28.0981 23.4389 26.9196 24.6C26.7585 24.7551 26.5904 24.9103 26.4152 25.0584L26.1209 25.2912C24.7495 26.3418 23.1034 26.9668 21.3844 27.0896H16.0943L19.0301 16.2848C19.4333 14.6833 20.2588 13.2213 21.4194 12.0532C21.5806 11.898 21.7487 11.7428 21.9239 11.5947L22.2602 11.3197C23.6316 10.2691 25.2777 9.64405 26.9967 9.5212H32.2937L29.3509 20.3683Z" fill="#84C551"/>
</svg>
