<svg width="35" height="35" viewBox="0 0 35 35"  xmlns="http://www.w3.org/2000/svg">
    <path d="M27.1898 30.7973H27.0898C27.0898 30.9507 27.1507 31.0978 27.2592 31.2063C27.3677 31.3148 27.5149 31.3758 27.6683 31.3758C27.8217 31.3758 27.9689 31.3148 28.0774 31.2063C28.1858 31.0978 28.2468 30.9507 28.2468 30.7973L28.2468 30.7971C28.2461 30.2165 28.0152 29.6599 27.6046 29.2493C27.194 28.8387 26.6374 28.6078 26.0568 28.6071H26.0566C25.9032 28.6071 25.7561 28.6681 25.6476 28.7766C25.5391 28.885 25.4781 29.0322 25.4781 29.1856C25.4781 29.3391 25.5391 29.4862 25.6476 29.5947C25.756 29.7032 25.9031 29.7641 26.0565 29.7641C26.3305 29.7645 26.5931 29.8734 26.7868 30.0671C26.9805 30.2608 27.0894 30.5235 27.0898 30.7974L27.1898 30.7973ZM27.1898 30.7973C27.1894 30.4969 27.0699 30.2088 26.8575 29.9964C26.6451 29.784 26.3571 29.6645 26.0566 29.6641C25.9297 29.6641 25.808 29.6137 25.7183 29.524C25.6285 29.4342 25.5781 29.3125 25.5781 29.1856C25.5781 29.0587 25.6285 28.937 25.7183 28.8473C25.808 28.7575 25.9297 28.7071 26.0566 28.7071C26.6108 28.7078 27.142 28.9282 27.5339 29.32C27.9257 29.7119 28.1461 30.2431 28.1468 30.7973C28.1468 30.9242 28.0964 31.0459 28.0066 31.1356C27.9169 31.2254 27.7952 31.2758 27.6683 31.2758C27.5414 31.2758 27.4197 31.2254 27.3299 31.1356C27.2402 31.0459 27.1898 30.9242 27.1898 30.7973Z"  stroke-width="0.2" />
    <path d="M23.2716 26.3564L23.2715 26.3564L22.1172 28.5682L22.2172 28.5683C22.2172 28.5683 22.2172 28.5682 22.2172 28.5682C22.2175 28.2886 22.3287 28.0205 22.5263 27.8228C22.724 27.6251 22.9921 27.5138 23.2718 27.5135C23.4251 27.5134 23.5722 27.4525 23.6807 27.344C23.7892 27.2355 23.8502 27.0884 23.8502 26.935C23.8502 26.7815 23.7892 26.6344 23.6807 26.5259C23.5722 26.4174 23.4251 26.3564 23.2716 26.3564Z"   stroke-width="0.2" />
    <path d="M17.6493 17.5387V17.5386C17.6493 17.3851 17.5883 17.238 17.4798 17.1295C17.3713 17.021 17.2242 16.96 17.0707 16.96H17.0707C16.5218 16.9604 15.9793 17.0775 15.4791 17.3034C15.0565 17.4943 14.6723 17.7592 14.3442 18.085V17.5107C14.9914 16.7763 15.3369 15.8238 15.3105 14.8444C15.2838 13.8521 14.8773 12.9079 14.1749 12.2066C14.0664 12.0982 13.9192 12.0373 13.7658 12.0373C13.6124 12.0373 13.4653 12.0982 13.3568 12.2066L13.3566 12.2067C12.6564 12.9092 12.2514 13.8529 12.2246 14.8444C12.1982 15.8231 12.5423 16.7752 13.1872 17.5106V18.0848C12.8593 17.759 12.4751 17.4941 12.0526 17.3032C11.5524 17.0773 11.0098 16.9603 10.461 16.96H10.4609C10.3075 16.96 10.1604 17.021 10.0519 17.1295C9.94337 17.238 9.88242 17.3851 9.88242 17.5386L9.88242 17.5387C9.88396 18.4827 10.2291 19.3939 10.8533 20.1021C11.458 20.7882 12.2847 21.2384 13.1872 21.3749V22.3844C13.1872 22.5378 13.2481 22.685 13.3566 22.7935C13.4651 22.902 13.6123 22.9629 13.7657 22.9629C13.9191 22.9629 14.0663 22.902 14.1748 22.7935C14.2833 22.685 14.3442 22.5378 14.3442 22.3844V21.3749C15.2467 21.2384 16.0735 20.7883 16.6783 20.1022C17.3026 19.394 17.6477 18.4828 17.6493 17.5387ZM13.4275 12.2773C12.7452 12.9617 12.3506 13.8811 12.3246 14.8471C12.2985 15.8131 12.6429 16.7525 13.2872 17.4727L13.4275 12.2773ZM13.3772 14.9531C13.3771 14.4572 13.5119 13.9717 13.7658 13.548C14.0202 13.9717 14.1554 14.4576 14.1554 14.9538C14.1554 15.4496 14.0204 15.9351 13.7663 16.3586C13.5122 15.9348 13.3772 15.4491 13.3772 14.9531ZM15.1435 18.9166C15.494 18.566 15.9326 18.3179 16.4116 18.1977C16.2916 18.6768 16.0437 19.1154 15.6932 19.4661C15.3427 19.8167 14.9041 20.0648 14.4251 20.185C14.5451 19.7059 14.793 19.2673 15.1435 18.9166ZM12.388 18.9173C12.7384 19.2678 12.9863 19.7061 13.1065 20.1849C12.6277 20.0648 12.1893 19.8169 11.8389 19.4665C11.4885 19.116 11.2406 18.6777 11.1204 18.1989C11.5992 18.319 12.0376 18.5669 12.388 18.9173Z"  stroke-width="0.2" />
    <path d="M6.30479 17.4999V17.5C6.30473 18.9757 6.74228 20.4183 7.56211 21.6453C8.38194 22.8724 9.54722 23.8287 10.9106 24.3935C12.274 24.9582 13.7742 25.106 15.2215 24.8181C16.6689 24.5303 17.9984 23.8196 19.0419 22.7761C20.0854 21.7327 20.796 20.4032 21.0839 18.9558C21.3717 17.5085 21.224 16.0082 20.6592 14.6449C20.0944 13.2815 19.1381 12.1162 17.911 11.2964C16.684 10.4766 15.2414 10.039 13.7657 10.0391L13.7656 10.0391C11.7876 10.0413 9.8912 10.8281 8.49252 12.2268C7.09384 13.6255 6.30706 15.5219 6.30479 17.4999ZM13.7657 11.1961C15.0125 11.1961 16.2313 11.5658 17.268 12.2585C18.3047 12.9512 19.1126 13.9357 19.5898 15.0876C20.0669 16.2395 20.1917 17.507 19.9485 18.7298C19.7053 19.9527 19.1049 21.0759 18.2233 21.9575C17.3416 22.8392 16.2184 23.4395 14.9956 23.6828C13.7727 23.926 12.5052 23.8012 11.3533 23.3241C10.2014 22.8469 9.2169 22.0389 8.52422 21.0023C7.83153 19.9656 7.46182 18.7468 7.46182 17.5C7.46377 15.8287 8.12856 14.2264 9.31035 13.0446C10.4921 11.8628 12.0944 11.1981 13.7657 11.1961Z"  stroke-width="0.2" />
    <mask id="path-5-outside-1_14_75" maskUnits="userSpaceOnUse" x="0.246094" y="0.246056" width="34" height="34" >
        <rect  x="0.246094" y="0.246056" width="34" height="34" />
        <path d="M31.8995 30.5977C31.8481 29.9541 31.5962 29.3428 31.1793 28.8499C30.7624 28.3569 30.2014 28.0071 29.5753 27.8496C29.5753 27.8256 29.5753 27.8015 29.5753 27.7777C29.5742 27.0058 29.2824 26.2627 28.758 25.6963C28.2336 25.1299 27.515 24.7819 26.7455 24.7215C26.7209 24.614 26.6908 24.5098 26.6553 24.407C26.954 22.1541 27.1134 19.8849 27.1327 17.6124V17.3876C27.1327 11.6394 25.7808 5.12969 25.6501 4.51418V1.72457C25.6501 1.59766 25.5997 1.47595 25.51 1.38621C25.4202 1.29647 25.2985 1.24606 25.1716 1.24606H3.20719C3.14434 1.24602 3.0821 1.25837 3.02402 1.28241C2.96595 1.30644 2.91319 1.34169 2.86875 1.38613C2.8243 1.43057 2.78906 1.48334 2.76502 1.54141C2.74099 1.59948 2.72864 1.66172 2.72867 1.72457V4.51363C2.5977 5.13051 1.24609 11.6397 1.24609 17.3876V17.6124C1.24609 23.3603 2.5977 29.8695 2.72867 30.4858V33.2749C2.72864 33.3377 2.74099 33.4 2.76502 33.458C2.78906 33.5161 2.8243 33.5689 2.86875 33.6133C2.91319 33.6578 2.96595 33.693 3.02402 33.7171C3.0821 33.7411 3.14434 33.7534 3.20719 33.7534H33.2755C33.3383 33.7534 33.4006 33.7411 33.4586 33.7171C33.5167 33.693 33.5695 33.6578 33.6139 33.6133C33.6584 33.5689 33.6936 33.5161 33.7176 33.458C33.7417 33.4 33.754 33.3377 33.754 33.2749C33.7567 32.6923 33.5802 32.123 33.2485 31.6441C32.9168 31.1652 32.4459 30.7999 31.8995 30.5977ZM3.6857 2.20309H24.6931V4.08625H3.6857V2.20309ZM2.20312 17.3876C2.20312 12.279 3.29277 6.54172 3.59766 5.04328H24.782C25.0855 6.54172 26.1765 12.279 26.1765 17.3876V17.6124C26.1642 19.449 26.0533 21.2837 25.8443 23.1085C25.4241 22.6965 24.902 22.4037 24.3313 22.2602C23.7607 22.1167 23.1621 22.1276 22.5971 22.2918C22.032 22.456 21.5209 22.7677 21.116 23.1947C20.7112 23.6217 20.4273 24.1488 20.2935 24.7218C19.5244 24.783 18.8067 25.1316 18.2829 25.698C17.7592 26.2645 17.4679 27.0073 17.467 27.7788C17.467 27.8026 17.467 27.8266 17.467 27.8507C16.9492 27.9816 16.4741 28.2442 16.0879 28.6132C15.7018 28.9822 15.4178 29.4449 15.2636 29.9562H3.59656C3.29277 28.4577 2.20203 22.7205 2.20203 17.6118L2.20312 17.3876ZM3.6857 30.9138H14.5327C14.2147 31.1295 13.9438 31.4078 13.7367 31.7315C13.5295 32.0552 13.3903 32.4177 13.3277 32.7969H3.6857V30.9138ZM19.5549 32.7969C19.6505 32.5571 19.8156 32.3515 20.0292 32.2064C20.2427 32.0614 20.4947 31.9836 20.7529 31.9832C20.8798 31.9832 21.0015 31.9328 21.0912 31.843C21.181 31.7533 21.2314 31.6316 21.2314 31.5047C21.2314 31.3777 21.181 31.256 21.0912 31.1663C21.0015 31.0766 20.8798 31.0261 20.7529 31.0261C20.2397 31.0269 19.7423 31.2029 19.3428 31.5249C18.9433 31.8469 18.6658 32.2957 18.5561 32.7969H14.3041C14.3908 32.4589 14.5694 32.1516 14.8201 31.9089C15.0708 31.6662 15.3837 31.4976 15.7243 31.4218C15.8341 31.3969 15.9316 31.334 15.9996 31.2444C16.0677 31.1547 16.102 31.044 16.0965 30.9315L16.0932 30.8788C16.0932 30.8613 16.0905 30.8435 16.0905 30.8257C16.093 30.2971 16.2931 29.7886 16.6514 29.4C17.0098 29.0114 17.5006 28.7709 18.0272 28.7257C18.094 28.7203 18.1588 28.701 18.2176 28.6691C18.2764 28.6371 18.3278 28.5931 18.3686 28.54C18.4093 28.4869 18.4385 28.4258 18.4541 28.3607C18.4698 28.2956 18.4716 28.228 18.4595 28.1622C18.4355 28.036 18.4231 27.9078 18.4226 27.7793C18.4232 27.2201 18.6456 26.6839 19.0411 26.2885C19.4365 25.893 19.9727 25.6706 20.5319 25.67C20.5642 25.67 20.5959 25.6725 20.6276 25.6747L20.6689 25.6774C20.7928 25.6852 20.9149 25.6444 21.0094 25.5638C21.1038 25.4832 21.1632 25.369 21.175 25.2454C21.2314 24.6629 21.5026 24.1222 21.9359 23.7288C22.3692 23.3354 22.9334 23.1175 23.5187 23.1175C24.1039 23.1175 24.6682 23.3354 25.1014 23.7288C25.5347 24.1222 25.806 24.6629 25.8623 25.2454C25.8739 25.3694 25.9335 25.4839 26.0284 25.5646C26.1232 25.6453 26.2458 25.6858 26.3701 25.6774L26.4056 25.675C26.4401 25.6725 26.4745 25.6698 26.5095 25.6698C26.8193 25.6685 27.1256 25.7357 27.4064 25.8667C27.6871 25.9977 27.9354 26.1892 28.1335 26.4274C28.3316 26.6656 28.4745 26.9447 28.552 27.2447C28.6295 27.5447 28.6397 27.8581 28.5819 28.1624C28.5698 28.2282 28.5716 28.2959 28.5872 28.361C28.6028 28.426 28.6319 28.4871 28.6727 28.5402C28.7134 28.5934 28.7648 28.6373 28.8236 28.6693C28.8824 28.7013 28.9472 28.7206 29.0139 28.726C29.5406 28.7712 30.0314 29.0117 30.3898 29.4002C30.7482 29.7888 30.9484 30.2974 30.951 30.826C30.951 30.8435 30.951 30.8604 30.9485 30.8777L30.945 30.9323C30.9395 31.0447 30.9737 31.1555 31.0417 31.2451C31.1097 31.3348 31.2071 31.3976 31.3168 31.4226C31.6574 31.4984 31.9704 31.6669 32.2211 31.9097C32.4718 32.1524 32.6504 32.4598 32.7371 32.7977L19.5549 32.7969Z" />
    </mask>
    <path d="M31.8995 30.5977C31.8481 29.9541 31.5962 29.3428 31.1793 28.8499C30.7624 28.3569 30.2014 28.0071 29.5753 27.8496C29.5753 27.8256 29.5753 27.8015 29.5753 27.7777C29.5742 27.0058 29.2824 26.2627 28.758 25.6963C28.2336 25.1299 27.515 24.7819 26.7455 24.7215C26.7209 24.614 26.6908 24.5098 26.6553 24.407C26.954 22.1541 27.1134 19.8849 27.1327 17.6124V17.3876C27.1327 11.6394 25.7808 5.12969 25.6501 4.51418V1.72457C25.6501 1.59766 25.5997 1.47595 25.51 1.38621C25.4202 1.29647 25.2985 1.24606 25.1716 1.24606H3.20719C3.14434 1.24602 3.0821 1.25837 3.02402 1.28241C2.96595 1.30644 2.91319 1.34169 2.86875 1.38613C2.8243 1.43057 2.78906 1.48334 2.76502 1.54141C2.74099 1.59948 2.72864 1.66172 2.72867 1.72457V4.51363C2.5977 5.13051 1.24609 11.6397 1.24609 17.3876V17.6124C1.24609 23.3603 2.5977 29.8695 2.72867 30.4858V33.2749C2.72864 33.3377 2.74099 33.4 2.76502 33.458C2.78906 33.5161 2.8243 33.5689 2.86875 33.6133C2.91319 33.6578 2.96595 33.693 3.02402 33.7171C3.0821 33.7411 3.14434 33.7534 3.20719 33.7534H33.2755C33.3383 33.7534 33.4006 33.7411 33.4586 33.7171C33.5167 33.693 33.5695 33.6578 33.6139 33.6133C33.6584 33.5689 33.6936 33.5161 33.7176 33.458C33.7417 33.4 33.754 33.3377 33.754 33.2749C33.7567 32.6923 33.5802 32.123 33.2485 31.6441C32.9168 31.1652 32.4459 30.7999 31.8995 30.5977ZM3.6857 2.20309H24.6931V4.08625H3.6857V2.20309ZM2.20312 17.3876C2.20312 12.279 3.29277 6.54172 3.59766 5.04328H24.782C25.0855 6.54172 26.1765 12.279 26.1765 17.3876V17.6124C26.1642 19.449 26.0533 21.2837 25.8443 23.1085C25.4241 22.6965 24.902 22.4037 24.3313 22.2602C23.7607 22.1167 23.1621 22.1276 22.5971 22.2918C22.032 22.456 21.5209 22.7677 21.116 23.1947C20.7112 23.6217 20.4273 24.1488 20.2935 24.7218C19.5244 24.783 18.8067 25.1316 18.2829 25.698C17.7592 26.2645 17.4679 27.0073 17.467 27.7788C17.467 27.8026 17.467 27.8266 17.467 27.8507C16.9492 27.9816 16.4741 28.2442 16.0879 28.6132C15.7018 28.9822 15.4178 29.4449 15.2636 29.9562H3.59656C3.29277 28.4577 2.20203 22.7205 2.20203 17.6118L2.20312 17.3876ZM3.6857 30.9138H14.5327C14.2147 31.1295 13.9438 31.4078 13.7367 31.7315C13.5295 32.0552 13.3903 32.4177 13.3277 32.7969H3.6857V30.9138ZM19.5549 32.7969C19.6505 32.5571 19.8156 32.3515 20.0292 32.2064C20.2427 32.0614 20.4947 31.9836 20.7529 31.9832C20.8798 31.9832 21.0015 31.9328 21.0912 31.843C21.181 31.7533 21.2314 31.6316 21.2314 31.5047C21.2314 31.3777 21.181 31.256 21.0912 31.1663C21.0015 31.0766 20.8798 31.0261 20.7529 31.0261C20.2397 31.0269 19.7423 31.2029 19.3428 31.5249C18.9433 31.8469 18.6658 32.2957 18.5561 32.7969H14.3041C14.3908 32.4589 14.5694 32.1516 14.8201 31.9089C15.0708 31.6662 15.3837 31.4976 15.7243 31.4218C15.8341 31.3969 15.9316 31.334 15.9996 31.2444C16.0677 31.1547 16.102 31.044 16.0965 30.9315L16.0932 30.8788C16.0932 30.8613 16.0905 30.8435 16.0905 30.8257C16.093 30.2971 16.2931 29.7886 16.6514 29.4C17.0098 29.0114 17.5006 28.7709 18.0272 28.7257C18.094 28.7203 18.1588 28.701 18.2176 28.6691C18.2764 28.6371 18.3278 28.5931 18.3686 28.54C18.4093 28.4869 18.4385 28.4258 18.4541 28.3607C18.4698 28.2956 18.4716 28.228 18.4595 28.1622C18.4355 28.036 18.4231 27.9078 18.4226 27.7793C18.4232 27.2201 18.6456 26.6839 19.0411 26.2885C19.4365 25.893 19.9727 25.6706 20.5319 25.67C20.5642 25.67 20.5959 25.6725 20.6276 25.6747L20.6689 25.6774C20.7928 25.6852 20.9149 25.6444 21.0094 25.5638C21.1038 25.4832 21.1632 25.369 21.175 25.2454C21.2314 24.6629 21.5026 24.1222 21.9359 23.7288C22.3692 23.3354 22.9334 23.1175 23.5187 23.1175C24.1039 23.1175 24.6682 23.3354 25.1014 23.7288C25.5347 24.1222 25.806 24.6629 25.8623 25.2454C25.8739 25.3694 25.9335 25.4839 26.0284 25.5646C26.1232 25.6453 26.2458 25.6858 26.3701 25.6774L26.4056 25.675C26.4401 25.6725 26.4745 25.6698 26.5095 25.6698C26.8193 25.6685 27.1256 25.7357 27.4064 25.8667C27.6871 25.9977 27.9354 26.1892 28.1335 26.4274C28.3316 26.6656 28.4745 26.9447 28.552 27.2447C28.6295 27.5447 28.6397 27.8581 28.5819 28.1624C28.5698 28.2282 28.5716 28.2959 28.5872 28.361C28.6028 28.426 28.6319 28.4871 28.6727 28.5402C28.7134 28.5934 28.7648 28.6373 28.8236 28.6693C28.8824 28.7013 28.9472 28.7206 29.0139 28.726C29.5406 28.7712 30.0314 29.0117 30.3898 29.4002C30.7482 29.7888 30.9484 30.2974 30.951 30.826C30.951 30.8435 30.951 30.8604 30.9485 30.8777L30.945 30.9323C30.9395 31.0447 30.9737 31.1555 31.0417 31.2451C31.1097 31.3348 31.2071 31.3976 31.3168 31.4226C31.6574 31.4984 31.9704 31.6669 32.2211 31.9097C32.4718 32.1524 32.6504 32.4598 32.7371 32.7977L19.5549 32.7969Z"  />
    <path d="M31.8995 30.5977C31.8481 29.9541 31.5962 29.3428 31.1793 28.8499C30.7624 28.3569 30.2014 28.0071 29.5753 27.8496C29.5753 27.8256 29.5753 27.8015 29.5753 27.7777C29.5742 27.0058 29.2824 26.2627 28.758 25.6963C28.2336 25.1299 27.515 24.7819 26.7455 24.7215C26.7209 24.614 26.6908 24.5098 26.6553 24.407C26.954 22.1541 27.1134 19.8849 27.1327 17.6124V17.3876C27.1327 11.6394 25.7808 5.12969 25.6501 4.51418V1.72457C25.6501 1.59766 25.5997 1.47595 25.51 1.38621C25.4202 1.29647 25.2985 1.24606 25.1716 1.24606H3.20719C3.14434 1.24602 3.0821 1.25837 3.02402 1.28241C2.96595 1.30644 2.91319 1.34169 2.86875 1.38613C2.8243 1.43057 2.78906 1.48334 2.76502 1.54141C2.74099 1.59948 2.72864 1.66172 2.72867 1.72457V4.51363C2.5977 5.13051 1.24609 11.6397 1.24609 17.3876V17.6124C1.24609 23.3603 2.5977 29.8695 2.72867 30.4858V33.2749C2.72864 33.3377 2.74099 33.4 2.76502 33.458C2.78906 33.5161 2.8243 33.5689 2.86875 33.6133C2.91319 33.6578 2.96595 33.693 3.02402 33.7171C3.0821 33.7411 3.14434 33.7534 3.20719 33.7534H33.2755C33.3383 33.7534 33.4006 33.7411 33.4586 33.7171C33.5167 33.693 33.5695 33.6578 33.6139 33.6133C33.6584 33.5689 33.6936 33.5161 33.7176 33.458C33.7417 33.4 33.754 33.3377 33.754 33.2749C33.7567 32.6923 33.5802 32.123 33.2485 31.6441C32.9168 31.1652 32.4459 30.7999 31.8995 30.5977ZM3.6857 2.20309H24.6931V4.08625H3.6857V2.20309ZM2.20312 17.3876C2.20312 12.279 3.29277 6.54172 3.59766 5.04328H24.782C25.0855 6.54172 26.1765 12.279 26.1765 17.3876V17.6124C26.1642 19.449 26.0533 21.2837 25.8443 23.1085C25.4241 22.6965 24.902 22.4037 24.3313 22.2602C23.7607 22.1167 23.1621 22.1276 22.5971 22.2918C22.032 22.456 21.5209 22.7677 21.116 23.1947C20.7112 23.6217 20.4273 24.1488 20.2935 24.7218C19.5244 24.783 18.8067 25.1316 18.2829 25.698C17.7592 26.2645 17.4679 27.0073 17.467 27.7788C17.467 27.8026 17.467 27.8266 17.467 27.8507C16.9492 27.9816 16.4741 28.2442 16.0879 28.6132C15.7018 28.9822 15.4178 29.4449 15.2636 29.9562H3.59656C3.29277 28.4577 2.20203 22.7205 2.20203 17.6118L2.20312 17.3876ZM3.6857 30.9138H14.5327C14.2147 31.1295 13.9438 31.4078 13.7367 31.7315C13.5295 32.0552 13.3903 32.4177 13.3277 32.7969H3.6857V30.9138ZM19.5549 32.7969C19.6505 32.5571 19.8156 32.3515 20.0292 32.2064C20.2427 32.0614 20.4947 31.9836 20.7529 31.9832C20.8798 31.9832 21.0015 31.9328 21.0912 31.843C21.181 31.7533 21.2314 31.6316 21.2314 31.5047C21.2314 31.3777 21.181 31.256 21.0912 31.1663C21.0015 31.0766 20.8798 31.0261 20.7529 31.0261C20.2397 31.0269 19.7423 31.2029 19.3428 31.5249C18.9433 31.8469 18.6658 32.2957 18.5561 32.7969H14.3041C14.3908 32.4589 14.5694 32.1516 14.8201 31.9089C15.0708 31.6662 15.3837 31.4976 15.7243 31.4218C15.8341 31.3969 15.9316 31.334 15.9996 31.2444C16.0677 31.1547 16.102 31.044 16.0965 30.9315L16.0932 30.8788C16.0932 30.8613 16.0905 30.8435 16.0905 30.8257C16.093 30.2971 16.2931 29.7886 16.6514 29.4C17.0098 29.0114 17.5006 28.7709 18.0272 28.7257C18.094 28.7203 18.1588 28.701 18.2176 28.6691C18.2764 28.6371 18.3278 28.5931 18.3686 28.54C18.4093 28.4869 18.4385 28.4258 18.4541 28.3607C18.4698 28.2956 18.4716 28.228 18.4595 28.1622C18.4355 28.036 18.4231 27.9078 18.4226 27.7793C18.4232 27.2201 18.6456 26.6839 19.0411 26.2885C19.4365 25.893 19.9727 25.6706 20.5319 25.67C20.5642 25.67 20.5959 25.6725 20.6276 25.6747L20.6689 25.6774C20.7928 25.6852 20.9149 25.6444 21.0094 25.5638C21.1038 25.4832 21.1632 25.369 21.175 25.2454C21.2314 24.6629 21.5026 24.1222 21.9359 23.7288C22.3692 23.3354 22.9334 23.1175 23.5187 23.1175C24.1039 23.1175 24.6682 23.3354 25.1014 23.7288C25.5347 24.1222 25.806 24.6629 25.8623 25.2454C25.8739 25.3694 25.9335 25.4839 26.0284 25.5646C26.1232 25.6453 26.2458 25.6858 26.3701 25.6774L26.4056 25.675C26.4401 25.6725 26.4745 25.6698 26.5095 25.6698C26.8193 25.6685 27.1256 25.7357 27.4064 25.8667C27.6871 25.9977 27.9354 26.1892 28.1335 26.4274C28.3316 26.6656 28.4745 26.9447 28.552 27.2447C28.6295 27.5447 28.6397 27.8581 28.5819 28.1624C28.5698 28.2282 28.5716 28.2959 28.5872 28.361C28.6028 28.426 28.6319 28.4871 28.6727 28.5402C28.7134 28.5934 28.7648 28.6373 28.8236 28.6693C28.8824 28.7013 28.9472 28.7206 29.0139 28.726C29.5406 28.7712 30.0314 29.0117 30.3898 29.4002C30.7482 29.7888 30.9484 30.2974 30.951 30.826C30.951 30.8435 30.951 30.8604 30.9485 30.8777L30.945 30.9323C30.9395 31.0447 30.9737 31.1555 31.0417 31.2451C31.1097 31.3348 31.2071 31.3976 31.3168 31.4226C31.6574 31.4984 31.9704 31.6669 32.2211 31.9097C32.4718 32.1524 32.6504 32.4598 32.7371 32.7977L19.5549 32.7969Z"  stroke-width="0.4" mask="url(#path-5-outside-1_14_75)" />
    <path d="M5.59082 7.45547H9.57016C9.72359 7.45547 9.87074 7.39452 9.97923 7.28603C10.0877 7.17754 10.1487 7.03039 10.1487 6.87696C10.1487 6.72353 10.0877 6.57638 9.97923 6.46788C9.87074 6.35939 9.72359 6.29844 9.57016 6.29844H5.59082C5.43739 6.29844 5.29024 6.35939 5.18175 6.46788C5.07325 6.57638 5.0123 6.72353 5.0123 6.87696C5.0123 7.03039 5.07325 7.17754 5.18175 7.28603C5.29024 7.39452 5.43739 7.45547 5.59082 7.45547Z"  stroke-width="0.2" />
    <path d="M11.4902 7.45547H12.5782C12.7317 7.45547 12.8788 7.39452 12.9873 7.28603C13.0958 7.17754 13.1568 7.03039 13.1568 6.87696C13.1568 6.72353 13.0958 6.57638 12.9873 6.46788C12.8788 6.35939 12.7317 6.29844 12.5782 6.29844H11.4902C11.3368 6.29844 11.1897 6.35939 11.0812 6.46788C10.9727 6.57638 10.9117 6.72353 10.9117 6.87696C10.9117 7.03039 10.9727 7.17754 11.0812 7.28603C11.1897 7.39452 11.3368 7.45547 11.4902 7.45547Z"   stroke-width="0.2" />
</svg>