<svg width="40" height="40" viewBox="0 0 40 40" fill="none" xmlns="http://www.w3.org/2000/svg">
<path d="M24.1978 26.5454L22.0044 22.6764C21.9876 22.6514 21.9762 22.6233 21.9708 22.5938C21.9654 22.5643 21.9662 22.534 21.9731 22.5047C21.9799 22.4755 21.9928 22.448 22.0107 22.424C22.0287 22.3999 22.0514 22.3799 22.0775 22.365C22.1036 22.3502 22.1325 22.3409 22.1623 22.3377C22.1922 22.3345 22.2224 22.3375 22.251 22.3465C22.2796 22.3555 22.3061 22.3704 22.3287 22.3901C22.3514 22.4098 22.3697 22.434 22.3826 22.4611L24.576 26.3302L24.1978 26.5454Z" fill="#8C3213"/>
<path d="M19.1682 17.4546C19.1298 17.4541 19.0921 17.4437 19.059 17.4243C19.0258 17.405 18.9983 17.3773 18.9791 17.344L16.7856 13.4778L17.1638 13.2596L19.3573 17.1287C19.3846 17.1782 19.3914 17.2364 19.3761 17.2909C19.3609 17.3453 19.3249 17.3916 19.2758 17.4196C19.2433 17.4397 19.2063 17.4517 19.1682 17.4546Z" fill="#8C3213"/>
<path d="M22.0537 27.1971C21.7316 27.2026 21.41 27.1674 21.0967 27.0924C17.9694 26.2284 13.8617 18.9818 14.7257 15.8575C15.119 14.7504 15.8731 13.8078 16.8668 13.1811C17.0588 13.0676 17.2537 12.9658 17.4487 12.8727C17.6275 12.7913 17.8304 12.7799 18.0173 12.8407C18.2042 12.9016 18.3615 13.0303 18.4581 13.2015L20.1017 16.1105C20.1563 16.2058 20.1902 16.3116 20.2012 16.4208C20.2123 16.5301 20.2002 16.6404 20.1657 16.7447C20.1307 16.8492 20.0743 16.9453 20.0002 17.027C19.9261 17.1086 19.8359 17.1739 19.7352 17.2189C19.5752 17.2887 19.4181 17.3615 19.2668 17.44C18.6065 17.7716 18.2283 18.0713 18.141 18.3331C17.9403 18.9556 18.1788 20.0087 18.749 21.0153C19.3192 22.0218 20.0872 22.7607 20.7301 22.8975C20.9192 22.9411 21.3119 22.8975 22.0741 22.3942C22.2196 22.304 22.365 22.2051 22.5076 22.1033C22.5971 22.0398 22.699 21.9957 22.8067 21.974C22.9143 21.9523 23.0253 21.9534 23.1325 21.9773C23.2397 22.0011 23.3407 22.0472 23.4289 22.1125C23.5172 22.1778 23.5908 22.2609 23.645 22.3564L25.2916 25.2655C25.3899 25.4365 25.4203 25.6383 25.3766 25.8308C25.333 26.0232 25.2185 26.1921 25.0559 26.304C24.8785 26.4204 24.6894 26.5367 24.4916 26.6444C23.7355 27.0227 22.8991 27.2123 22.0537 27.1971ZM17.7716 13.2335C17.7233 13.2344 17.6758 13.2452 17.6319 13.2655C17.4516 13.3498 17.2683 13.4487 17.0879 13.5564C16.1925 14.1258 15.5095 14.9744 15.1447 15.9709C14.7781 17.3004 15.421 19.712 16.7825 22.112C18.1439 24.512 19.8836 26.304 21.213 26.6735C22.2543 26.8733 23.3324 26.7261 24.2821 26.2545C24.4683 26.1527 24.6457 26.0451 24.8116 25.9345C24.8828 25.8844 24.9328 25.8095 24.9516 25.7245C24.9705 25.6394 24.9568 25.5504 24.9134 25.4749L23.2668 22.5658C23.2427 22.5235 23.2101 22.4867 23.1711 22.4577C23.132 22.4286 23.0874 22.408 23.0399 22.3971C22.9901 22.3856 22.9384 22.3849 22.8882 22.3949C22.8381 22.4049 22.7906 22.4255 22.749 22.4553C22.6007 22.56 22.4581 22.6618 22.301 22.7462C21.5621 23.2233 21.0297 23.4007 20.6254 23.3105C19.8545 23.136 19.0079 22.3535 18.3621 21.216C17.8588 20.3433 17.4283 19.0749 17.7192 18.1847C17.8443 17.7978 18.2719 17.4313 19.0603 17.0211C19.2174 16.9396 19.3832 16.864 19.549 16.7913C19.5944 16.7712 19.6351 16.7419 19.6686 16.7054C19.7021 16.6689 19.7278 16.6258 19.7439 16.5789C19.76 16.5311 19.7657 16.4805 19.7607 16.4303C19.7557 16.3802 19.7401 16.3316 19.7148 16.288L18.0683 13.3789C18.0342 13.3328 17.9893 13.2957 17.9376 13.2708C17.8859 13.246 17.8289 13.2341 17.7716 13.2364V13.2335Z" fill="#8C3213"/>
<circle cx="20" cy="20" r="19.5" stroke="#8C3213"/>
</svg>
